<svg version="1.2" xmlns="http://www.w3.org/2000/svg" viewBox="0 0 1000 1000" width="1000" height="1000">
	<title>2251795-ai</title>
	<defs>
		<clipPath clipPathUnits="userSpaceOnUse" id="cp1">
			<path d="m1000 1000h-1000v-1000h1000z"/>
		</clipPath>
		<clipPath clipPathUnits="userSpaceOnUse" id="cp2">
			<path d="m1000 1000h-1000v-1000h1000z"/>
		</clipPath>
		<linearGradient id="g1" x2="1" gradientUnits="userSpaceOnUse" gradientTransform="matrix(-483.827,241.914,-241.922,-483.843,269.909,129.117)">
			<stop offset="0" stop-color="#ffffff"/>
			<stop offset="1" stop-color="#2aa4ff"/>
		</linearGradient>
		<linearGradient id="g2" x2="1" gradientUnits="userSpaceOnUse" gradientTransform="matrix(-483.803,241.902,-241.902,-483.803,286.111,149.827)">
			<stop offset="0" stop-color="#ffffff"/>
			<stop offset="1" stop-color="#2aa4ff"/>
		</linearGradient>
		<linearGradient id="g3" x2="1" gradientUnits="userSpaceOnUse" gradientTransform="matrix(-483.821,241.911,-241.914,-483.826,175.003,15.713)">
			<stop offset="0" stop-color="#ffffff"/>
			<stop offset="1" stop-color="#2aa4ff"/>
		</linearGradient>
		<linearGradient id="g4" x2="1" gradientUnits="userSpaceOnUse" gradientTransform="matrix(-483.831,241.916,-241.913,-483.826,320.207,153.694)">
			<stop offset="0" stop-color="#ffffff"/>
			<stop offset="1" stop-color="#2aa4ff"/>
		</linearGradient>
		<linearGradient id="g5" x2="1" gradientUnits="userSpaceOnUse" gradientTransform="matrix(-483.829,241.915,-241.916,-483.831,437.126,353.196)">
			<stop offset="0" stop-color="#ffffff"/>
			<stop offset="1" stop-color="#2aa4ff"/>
		</linearGradient>
		<linearGradient id="g6" x2="1" gradientUnits="userSpaceOnUse" gradientTransform="matrix(-483.842,241.921,-241.913,-483.826,317.044,168.392)">
			<stop offset="0" stop-color="#ffffff"/>
			<stop offset="1" stop-color="#2aa4ff"/>
		</linearGradient>
		<linearGradient id="g7" x2="1" gradientUnits="userSpaceOnUse" gradientTransform="matrix(-483.822,241.912,-241.921,-483.84,283.341,55.066)">
			<stop offset="0" stop-color="#ffffff"/>
			<stop offset="1" stop-color="#2aa4ff"/>
		</linearGradient>
		<linearGradient id="g8" x2="1" gradientUnits="userSpaceOnUse" gradientTransform="matrix(-483.822,241.912,-241.921,-483.84,211.736,96.805)">
			<stop offset="0" stop-color="#ffffff"/>
			<stop offset="1" stop-color="#2aa4ff"/>
		</linearGradient>
		<linearGradient id="g9" x2="1" gradientUnits="userSpaceOnUse" gradientTransform="matrix(-483.829,241.915,-241.913,-483.826,515.832,406.824)">
			<stop offset="0" stop-color="#ffffff"/>
			<stop offset="1" stop-color="#2aa4ff"/>
		</linearGradient>
		<linearGradient id="g10" x2="1" gradientUnits="userSpaceOnUse" gradientTransform="matrix(-483.833,241.917,-241.908,-483.815,299.528,121.202)">
			<stop offset="0" stop-color="#ffffff"/>
			<stop offset="1" stop-color="#2aa4ff"/>
		</linearGradient>
		<linearGradient id="g11" x2="1" gradientUnits="userSpaceOnUse" gradientTransform="matrix(-483.833,241.917,-241.908,-483.815,184.09,121.202)">
			<stop offset="0" stop-color="#ffffff"/>
			<stop offset="1" stop-color="#2aa4ff"/>
		</linearGradient>
		<linearGradient id="g12" x2="1" gradientUnits="userSpaceOnUse" gradientTransform="matrix(-483.821,241.911,-241.911,-483.821,411.536,174.993)">
			<stop offset="0" stop-color="#ffffff"/>
			<stop offset="1" stop-color="#2aa4ff"/>
		</linearGradient>
		<linearGradient id="g13" x2="1" gradientUnits="userSpaceOnUse" gradientTransform="matrix(-483.825,241.913,-241.916,-483.831,477.196,137.617)">
			<stop offset="0" stop-color="#ffffff"/>
			<stop offset="1" stop-color="#2aa4ff"/>
		</linearGradient>
		<linearGradient id="g14" x2="1" gradientUnits="userSpaceOnUse" gradientTransform="matrix(-483.825,241.913,-241.917,-483.833,388.956,272.972)">
			<stop offset="0" stop-color="#ffffff"/>
			<stop offset="1" stop-color="#2aa4ff"/>
		</linearGradient>
		<linearGradient id="g15" x2="1" gradientUnits="userSpaceOnUse" gradientTransform="matrix(-483.825,241.913,-241.916,-483.831,364.546,201.585)">
			<stop offset="0" stop-color="#ffffff"/>
			<stop offset="1" stop-color="#2aa4ff"/>
		</linearGradient>
		<radialGradient id="g16" cx="0" cy="0" r="1" gradientUnits="userSpaceOnUse" gradientTransform="matrix(-32.02,23.241,-23.241,-32.02,723.236,533.209)">
			<stop offset="0" stop-color="#2aa4ff"/>
			<stop offset="1" stop-color="#002e9f"/>
		</radialGradient>
		<linearGradient id="g17" x2="1" gradientUnits="userSpaceOnUse" gradientTransform="matrix(-621.316,481.725,-543.326,-700.767,738.947,371.563)">
			<stop offset="0" stop-color="#000e32"/>
			<stop offset=".402" stop-color="#0b5b9f"/>
			<stop offset="1" stop-color="#2aa4ff"/>
		</linearGradient>
		<linearGradient id="g18" x2="1" gradientUnits="userSpaceOnUse" gradientTransform="matrix(-533.422,266.711,-266.717,-533.432,537.337,303.646)">
			<stop offset="0" stop-color="#ffffff"/>
			<stop offset="1" stop-color="#2aa4ff"/>
		</linearGradient>
		<linearGradient id="g19" x2="1" gradientUnits="userSpaceOnUse" gradientTransform="matrix(-533.423,266.712,-266.721,-533.441,542.87,378.721)">
			<stop offset="0" stop-color="#ffffff"/>
			<stop offset="1" stop-color="#2aa4ff"/>
		</linearGradient>
		<linearGradient id="g20" x2="1" gradientUnits="userSpaceOnUse" gradientTransform="matrix(-533.435,266.718,-266.718,-533.435,571.768,377.018)">
			<stop offset="0" stop-color="#ffffff"/>
			<stop offset="1" stop-color="#2aa4ff"/>
		</linearGradient>
		<linearGradient id="g21" x2="1" gradientUnits="userSpaceOnUse" gradientTransform="matrix(-533.42,266.711,-266.711,-533.42,532.925,486.763)">
			<stop offset="0" stop-color="#ffffff"/>
			<stop offset="1" stop-color="#2aa4ff"/>
		</linearGradient>
		<linearGradient id="g22" x2="1" gradientUnits="userSpaceOnUse" gradientTransform="matrix(-533.426,266.713,-266.713,-533.426,414.618,235.817)">
			<stop offset="0" stop-color="#ffffff"/>
			<stop offset="1" stop-color="#2aa4ff"/>
		</linearGradient>
		<linearGradient id="g23" x2="1" gradientUnits="userSpaceOnUse" gradientTransform="matrix(-533.431,266.716,-266.72,-533.438,600.401,292.419)">
			<stop offset="0" stop-color="#ffffff"/>
			<stop offset="1" stop-color="#2aa4ff"/>
		</linearGradient>
		<radialGradient id="g24" cx="0" cy="0" r="1" gradientUnits="userSpaceOnUse" gradientTransform="matrix(-27.039,14.101,-14.101,-27.039,446.924,222.139)">
			<stop offset="0" stop-color="#a2ceff"/>
			<stop offset=".994" stop-color="#6a92d0"/>
		</radialGradient>
		<radialGradient id="g25" cx="0" cy="0" r="1" gradientUnits="userSpaceOnUse" gradientTransform="matrix(-170.097,208.478,-208.478,-170.097,733.622,539.225)">
			<stop offset="0" stop-color="#cfecff"/>
			<stop offset=".994" stop-color="#6a92d0"/>
		</radialGradient>
		<radialGradient id="g26" cx="0" cy="0" r="1" gradientUnits="userSpaceOnUse" gradientTransform="matrix(-54.083,39.254,-39.254,-54.083,455.357,281.893)">
			<stop offset="0" stop-color="#2aa4ff"/>
			<stop offset="1" stop-color="#002e9f"/>
		</radialGradient>
		<radialGradient id="g27" cx="0" cy="0" r="1" gradientUnits="userSpaceOnUse" gradientTransform="matrix(-120.961,144.223,-144.223,-120.961,400.983,333.359)">
			<stop offset="0" stop-color="#2aa4ff"/>
			<stop offset=".598" stop-color="#0b5b9f"/>
			<stop offset="1" stop-color="#000e32"/>
		</radialGradient>
		<radialGradient id="g28" cx="0" cy="0" r="1" gradientUnits="userSpaceOnUse" gradientTransform="matrix(71.646,7.135,-7.135,71.646,388.334,588.582)">
			<stop offset="0" stop-color="#464682"/>
			<stop offset="1" stop-color="#ffffff"/>
		</radialGradient>
		<radialGradient id="g29" cx="0" cy="0" r="1" gradientUnits="userSpaceOnUse" gradientTransform="matrix(-68.04,80.253,-80.253,-68.04,439.855,473.22)">
			<stop offset=".167" stop-color="#ff8d7c"/>
			<stop offset="1" stop-color="#972e93"/>
		</radialGradient>
		<radialGradient id="g30" cx="0" cy="0" r="1" gradientUnits="userSpaceOnUse" gradientTransform="matrix(-12.455,14.69,-14.69,-12.455,408.098,156.439)">
			<stop offset=".167" stop-color="#ff8d7c"/>
			<stop offset="1" stop-color="#972e93"/>
		</radialGradient>
		<linearGradient id="g31" x2="1" gradientUnits="userSpaceOnUse" gradientTransform="matrix(-317.709,331.134,-331.134,-317.709,1056.939,132.831)">
			<stop offset="0" stop-color="#ffffff"/>
			<stop offset="1" stop-color="#2aa4ff"/>
		</linearGradient>
		<linearGradient id="g32" x2="1" gradientUnits="userSpaceOnUse" gradientTransform="matrix(-350.277,365.078,-365.079,-350.278,1083.916,34.729)">
			<stop offset="0" stop-color="#ffffff"/>
			<stop offset="1" stop-color="#2aa4ff"/>
		</linearGradient>
		<linearGradient id="g33" x2="1" gradientUnits="userSpaceOnUse" gradientTransform="matrix(-317.709,331.134,-331.134,-317.709,812.53,75.477)">
			<stop offset="0" stop-color="#ffffff"/>
			<stop offset="1" stop-color="#2aa4ff"/>
		</linearGradient>
		<linearGradient id="g34" x2="1" gradientUnits="userSpaceOnUse" gradientTransform="matrix(-317.71,331.135,-331.135,-317.71,819.102,90.046)">
			<stop offset="0" stop-color="#ffffff"/>
			<stop offset="1" stop-color="#2aa4ff"/>
		</linearGradient>
		<linearGradient id="g35" x2="1" gradientUnits="userSpaceOnUse" gradientTransform="matrix(-350.281,365.082,-365.082,-350.281,788.23,-74.209)">
			<stop offset="0" stop-color="#ffffff"/>
			<stop offset="1" stop-color="#2aa4ff"/>
		</linearGradient>
		<linearGradient id="g36" x2="1" gradientUnits="userSpaceOnUse" gradientTransform="matrix(-317.71,331.135,-331.135,-317.71,960.284,86.666)">
			<stop offset="0" stop-color="#ffffff"/>
			<stop offset="1" stop-color="#2aa4ff"/>
		</linearGradient>
		<linearGradient id="g37" x2="1" gradientUnits="userSpaceOnUse" gradientTransform="matrix(-317.709,331.133,-331.133,-317.709,965.726,212.563)">
			<stop offset="0" stop-color="#ffffff"/>
			<stop offset="1" stop-color="#2aa4ff"/>
		</linearGradient>
		<linearGradient id="g38" x2="1" gradientUnits="userSpaceOnUse" gradientTransform="matrix(-224.654,234.147,-234.147,-224.654,894.813,117.18)">
			<stop offset="0" stop-color="#ffffff"/>
			<stop offset="1" stop-color="#2aa4ff"/>
		</linearGradient>
		<linearGradient id="g39" x2="1" gradientUnits="userSpaceOnUse" gradientTransform="matrix(-317.71,331.135,-331.135,-317.71,932.468,200.193)">
			<stop offset="0" stop-color="#ffffff"/>
			<stop offset="1" stop-color="#2aa4ff"/>
		</linearGradient>
		<radialGradient id="g40" cx="0" cy="0" r="1" gradientUnits="userSpaceOnUse" gradientTransform="matrix(-121.055,119.473,-119.473,-121.055,695.407,291.099)">
			<stop offset=".167" stop-color="#ff8d7c"/>
			<stop offset="1" stop-color="#972e93"/>
		</radialGradient>
		<clipPath clipPathUnits="userSpaceOnUse" id="cp3">
			<path d="m1000 1000h-1000v-1000h1000z"/>
		</clipPath>
	</defs>
	<style>
		.s0 { fill: #ffffff } 
		.s1 { fill: url(#g1) } 
		.s2 { fill: url(#g2) } 
		.s3 { fill: url(#g3) } 
		.s4 { fill: url(#g4) } 
		.s5 { fill: url(#g5) } 
		.s6 { fill: url(#g6) } 
		.s7 { fill: url(#g7) } 
		.s8 { fill: url(#g8) } 
		.s9 { fill: url(#g9) } 
		.s10 { fill: url(#g10) } 
		.s11 { fill: url(#g11) } 
		.s12 { fill: url(#g12) } 
		.s13 { fill: url(#g13) } 
		.s14 { fill: url(#g14) } 
		.s15 { fill: url(#g15) } 
		.s16 { fill: url(#g16) } 
		.s17 { fill: url(#g17) } 
		.s18 { fill: url(#g18) } 
		.s19 { fill: url(#g19) } 
		.s20 { fill: url(#g20) } 
		.s21 { fill: url(#g21) } 
		.s22 { fill: url(#g22) } 
		.s23 { fill: url(#g23) } 
		.s24 { fill: url(#g24) } 
		.s25 { fill: #091c3f } 
		.s26 { fill: url(#g25) } 
		.s27 { opacity: .2;mix-blend-mode: multiply;fill: #446082 } 
		.s28 { fill: url(#g26) } 
		.s29 { fill: url(#g27) } 
		.s30 { opacity: .5;mix-blend-mode: multiply;fill: url(#g28) } 
		.s31 { fill: url(#g29) } 
		.s32 { fill: url(#g30) } 
		.s33 { fill: url(#g31) } 
		.s34 { fill: url(#g32) } 
		.s35 { fill: url(#g33) } 
		.s36 { fill: url(#g34) } 
		.s37 { fill: url(#g35) } 
		.s38 { fill: url(#g36) } 
		.s39 { fill: url(#g37) } 
		.s40 { fill: url(#g38) } 
		.s41 { fill: url(#g39) } 
		.s42 { fill: url(#g40) } 
	</style>
	<g id="Background">
		<g id="&lt;Group&gt;">
			<path id="&lt;Path&gt;" class="s0" d="m1000 1000h-1000v-1000h1000z"/>
		</g>
	</g>
	<g id="Objects">
		<g id="Objects 2 ">
			<g id="&lt;Group&gt;">
				<g id="&lt;Group&gt;">
					<g id="&lt;Clip Group&gt;" clip-path="url(#cp1)">
					</g>
				</g>
			</g>
			<g id="&lt;Group&gt;">
				<g id="&lt;Group&gt;">
					<g id="&lt;Clip Group&gt;" clip-path="url(#cp2)">
					</g>
					<g id="&lt;Group&gt;">
						<path id="&lt;Path&gt;" class="s1" d="m290.8 115.9c0.4-0.5 1.1-0.5 1.5 0 0.5 0.4 0.5 1.1 0 1.5-0.4 0.5-1.1 0.5-1.5 0-0.5-0.4-0.5-1.1 0-1.5z"/>
						<path id="&lt;Path&gt;" class="s2" d="m289.2 146.7c0.3-0.2 0.6-0.2 0.9 0 0.2 0.2 0.2 0.6 0 0.9-0.3 0.2-0.6 0.2-0.9 0-0.2-0.3-0.2-0.7 0-0.9z"/>
						<path id="&lt;Path&gt;" class="s3" d="m92.9 54.5c0.3-0.4 0.9-0.4 1.2 0 0.4 0.3 0.4 0.9 0 1.3-0.3 0.3-0.9 0.3-1.2 0-0.4-0.4-0.4-1 0-1.3z"/>
						<path id="&lt;Path&gt;" class="s4" d="m159.8 228.2c0.8-0.9 2.2-0.9 3.1 0 0.9 0.9 0.9 2.3 0 3.2-0.9 0.8-2.3 0.8-3.1 0-0.9-0.9-0.9-2.3 0-3.2z"/>
						<path id="&lt;Path&gt;" class="s5" d="m149.2 489c1.2-1.2 3.2-1.2 4.5 0 1.2 1.3 1.2 3.3 0 4.5-1.3 1.3-3.3 1.3-4.5 0-1.3-1.2-1.3-3.2 0-4.5z"/>
						<path id="&lt;Path&gt;" class="s6" d="m322.7 161.4c0.6-0.6 1.6-0.6 2.3 0 0.6 0.7 0.6 1.7 0 2.3-0.7 0.6-1.7 0.6-2.3 0-0.6-0.6-0.6-1.6 0-2.3z"/>
						<path id="&lt;Path&gt;" class="s7" d="m243.4 71.3c0.6-0.6 1.5-0.6 2.1 0 0.5 0.6 0.5 1.5 0 2.1-0.6 0.5-1.5 0.5-2.1 0-0.6-0.6-0.6-1.5 0-2.1z"/>
						<path id="&lt;Path&gt;" class="s8" d="m171.8 113c0.5-0.5 1.5-0.5 2 0 0.6 0.6 0.6 1.5 0 2.1-0.5 0.6-1.5 0.6-2 0-0.6-0.6-0.6-1.5 0-2.1z"/>
						<path id="&lt;Path&gt;" class="s9" d="m198.6 560.1c0.8-0.9 2.1-0.9 2.9 0 0.9 0.8 0.9 2.1 0 2.9-0.8 0.9-2.1 0.9-2.9 0-0.9-0.8-0.9-2.1 0-2.9z"/>
						<path id="&lt;Path&gt;" class="s10" d="m214.3 160.1c0.6-0.6 1.5-0.6 2.1 0 0.5 0.5 0.5 1.5 0 2-0.6 0.6-1.5 0.6-2.1 0-0.6-0.5-0.6-1.5 0-2z"/>
						<path id="&lt;Path&gt;" class="s11" d="m98.9 160.1c0.5-0.6 1.5-0.6 2 0 0.6 0.5 0.6 1.5 0 2-0.5 0.6-1.5 0.6-2 0-0.6-0.5-0.6-1.5 0-2z"/>
						<path id="&lt;Path&gt;" class="s12" d="m174 292.3c-0.5-0.5-0.5-1.3 0-1.9 0.5-0.5 1.3-0.5 1.8 0 0.5 0.6 0.5 1.4 0 1.9-0.5 0.5-1.3 0.5-1.8 0z"/>
						<path id="&lt;Path&gt;" class="s13" d="m337 205.3c-0.8-0.8-0.8-2.2 0-3 0.9-0.8 2.2-0.8 3 0 0.8 0.8 0.8 2.2 0 3-0.8 0.8-2.1 0.8-3 0z"/>
						<path id="&lt;Path&gt;" class="s14" d="m166.7 381.7c-0.8-0.8-0.8-2.2 0-3 0.8-0.8 2.2-0.8 3 0 0.8 0.8 0.8 2.2 0 3-0.8 0.8-2.2 0.8-3 0z"/>
						<path id="&lt;Path&gt;" class="s15" d="m123.4 319.8c-0.8-0.9-0.8-2.2 0-3 0.8-0.8 2.1-0.8 3 0 0.8 0.8 0.8 2.1 0 3-0.9 0.8-2.2 0.8-3 0z"/>
						<path id="&lt;Compound Path&gt;" fill-rule="evenodd" class="s0" d="m408.7 874c-95.7 0-173.5-77.9-173.5-173.6 0-95.7 77.8-173.6 173.5-173.6 95.8 0 173.6 77.9 173.6 173.6 0 95.7-77.8 173.6-173.6 173.6zm0-346.2c-95.1 0-172.5 77.4-172.5 172.6 0 95.2 77.4 172.6 172.5 172.6 95.2 0 172.6-77.4 172.6-172.6 0-95.2-77.4-172.6-172.6-172.6z"/>
						<path id="&lt;Path&gt;" class="s16" d="m730.6 546.4c0 14.7-11.9 26.6-26.6 26.6-14.7 0-26.6-11.9-26.6-26.6 0-14.7 11.9-26.6 26.6-26.6 14.7 0 26.6 11.9 26.6 26.6z"/>
						<path id="&lt;Path&gt;" class="s0" d="m638.7 634.8c-68.2 0-136.5-25.9-188.4-77.9-0.2-0.2-0.2-0.5 0-0.7 0.2-0.2 0.5-0.2 0.7 0 103.5 103.5 272 103.5 375.5 0 103.6-103.6 103.6-272 0-375.6-103.5-103.5-272-103.5-375.5 0-0.2 0.2-0.5 0.2-0.7 0-0.2-0.2-0.2-0.5 0-0.7 103.9-103.9 273-103.9 376.9 0 104 103.9 104 273.1 0 377-51.9 52-120.2 77.9-188.5 77.9z"/>
						<g id="&lt;Group&gt;">
							<g id="&lt;Group&gt;">
								<path id="&lt;Path&gt;" class="s17" d="m638.3 509.4l-264.9-2.8-8.2-0.1-115.7-1.3c-5.2 0-9.4-4.6-9.5-10.2l-1.6-216.8-0.5-74.8c-0.1-4.4 3.7-7.4 8.3-6.6l352.6 57.4c3.2 0.5 6.2 4 6.7 7.7l3.9 24.7 13.5 86.3 20.2 128.4c0.7 4.5-1.5 8.1-4.8 8.1z"/>
								<path id="&lt;Path&gt;" class="s18" d="m560.3 289c0.5-0.4 1.3-0.4 1.8 0 0.4 0.5 0.4 1.3 0 1.8-0.5 0.4-1.3 0.4-1.8 0-0.4-0.5-0.4-1.3 0-1.8z"/>
								<path id="&lt;Path&gt;" class="s19" d="m546.3 375.3c0.3-0.3 0.7-0.3 1 0 0.2 0.2 0.2 0.7 0 0.9-0.3 0.3-0.7 0.3-1 0-0.3-0.2-0.3-0.7 0-0.9z"/>
								<path id="&lt;Path&gt;" class="s20" d="m481.2 419.8c0.4-0.4 1-0.4 1.4 0 0.4 0.4 0.4 1 0 1.4-0.4 0.4-1 0.4-1.4 0-0.4-0.4-0.4-1 0-1.4z"/>
								<path id="&lt;Path&gt;" class="s21" d="m539.1 479.1c0.7-0.7 1.9-0.7 2.6 0 0.7 0.7 0.7 1.8 0 2.5-0.7 0.7-1.9 0.7-2.6 0-0.7-0.7-0.7-1.8 0-2.5z"/>
								<path id="&lt;Path&gt;" class="s22" d="m370.6 253.7c0.6-0.6 1.6-0.6 2.2 0 0.7 0.6 0.7 1.7 0 2.3-0.6 0.6-1.6 0.6-2.2 0-0.7-0.6-0.7-1.7 0-2.3z"/>
								<path id="&lt;Path&gt;" class="s23" d="m506.4 335.3c0.7-0.7 1.7-0.7 2.3 0 0.6 0.6 0.6 1.6 0 2.3-0.6 0.6-1.6 0.6-2.3 0-0.6-0.7-0.6-1.7 0-2.3z"/>
								<path id="&lt;Path&gt;" class="s24" d="m441.3 221.4c0.1 1.6-0.9 2.6-2.4 2.4-1.5-0.2-2.8-1.7-2.9-3.3-0.1-1.5 0.9-2.6 2.4-2.3 1.4 0.2 2.7 1.7 2.9 3.2z"/>
							</g>
							<g id="&lt;Group&gt;">
								<path id="&lt;Path&gt;" class="s25" d="m869.7 658l-403.3 132.8c-22.4 7.3-49.7 6.4-69.6-20.7 0 0-158.9-204.1-167.1-215.8-5-7-3.3-17.2 2.6-22.7l417.2 8.9c6.4 0 17.1 3.2 24.2 7.2l197.2 100.7c2.4 3 4 7.9-1.2 9.6z"/>
								<path id="&lt;Path&gt;" class="s26" d="m871 654.9l-405.3 131.8c-22.4 7.3-49.1 4.2-69-22.8 0 0-156.5-208.2-164.5-220-7.3-10.7 2.1-17.1 19.8-17.1h397.5c6.4 0 17.1 3.3 24.2 7.3l186.4 106.2c11 6.3 16.1 12.9 10.9 14.6z"/>
								<path id="&lt;Path&gt;" class="s0" d="m232.7 524.1q-0.1 0-0.2 0c-8-4.8-13-13.8-13-23.5v-304.7c0-5.3 2.1-10 5.9-13.2 4.1-3.5 9.9-4.9 15.9-3.9l358.7 61.4c8 1.3 15.7 10.1 17.2 19.6l39.8 246.3c0.1 0.3-0.1 0.5-0.4 0.6-0.3 0-0.5-0.2-0.6-0.4l-39.8-246.4c-1.4-9-8.8-17.5-16.4-18.8l-358.7-61.3c-5.7-1-11.1 0.3-15 3.6-3.6 3.1-5.6 7.5-5.6 12.5v304.7c0 9.4 4.8 18 12.5 22.6 0.2 0.1 0.3 0.4 0.2 0.7-0.1 0.1-0.3 0.2-0.5 0.2z"/>
								<path id="&lt;Path&gt;" class="s0" d="m820.9 671.7c-0.2 0-0.4-0.2-0.4-0.4-0.1-0.2 0-0.5 0.3-0.6l50-16.3q1.6-0.5 1.7-1.7c0.3-2.2-3.6-6.8-12.7-12l-186.3-106.2c-0.3-0.1-0.4-0.4-0.2-0.7 0.1-0.2 0.4-0.3 0.6-0.1l186.4 106.1c8.5 4.9 13.5 9.8 13.2 13-0.1 0.9-0.5 2-2.4 2.6l-50 16.2q-0.1 0.1-0.2 0.1z"/>
								<path id="&lt;Path&gt;" class="s0" d="m445.3 790.6c-19 0-36.2-9.1-49-26.4-0.9-1.3-92.6-122.3-100.5-134-0.2-0.2-0.1-0.6 0.1-0.7 0.2-0.2 0.5-0.1 0.7 0.1 7.9 11.7 99.6 132.7 100.5 134 23.2 31.6 52.9 27.7 68.5 22.7l308.4-100.4c0.2-0.1 0.5 0.1 0.6 0.3 0.1 0.3-0.1 0.6-0.3 0.7l-308.4 100.3c-7 2.3-13.9 3.4-20.6 3.4z"/>
								<path id="&lt;Path&gt;" class="s27" d="m359.5 647.1c-7.6 1-16.7-1.6-20-5.8l-76.7-97c-2.2-2.8 1.6-5.1 8.3-5.2l380.5-3.9c2.4-0.1 6.7 1.2 9.5 2.9l88.5 52.3c3.4 2.1 4.4 4 2.1 4.3z"/>
								<path id="&lt;Path&gt;" class="s27" d="m657.2 698.1c-2.7 0.8-7.4-0.5-10.4-2.9l-76-60.9c-2.4-2-2.1-3.8 0.7-4.3l105.9-15.8c2-0.3 5.5 0.7 7.8 2.2l72.7 48.3c2.8 1.9 3.6 3.8 1.8 4.3z"/>
							</g>
						</g>
						<path id="&lt;Path&gt;" class="s28" d="m467.7 304.1c0 24.8-20.1 44.9-44.9 44.9-24.8 0-44.9-20.1-44.9-44.9 0-24.8 20.1-44.9 44.9-44.9 24.8 0 44.9 20.1 44.9 44.9z"/>
						<path id="&lt;Path&gt;" class="s29" d="m438.6 392.3c0 48.7-26.1 91.2-65.2 114.3l-8.2-0.1-115.7-1.3c-5.2 0-9.4-4.6-9.5-10.2l-1.6-216.8c19.8-11.8 42.9-18.5 67.6-18.5 73.3 0 132.6 59.4 132.6 132.6z"/>
						<path id="&lt;Path&gt;" class="s30" d="m460 595.7c-1.4 13.5-34.5 21.3-74.1 17.4-39.6-4-70.6-18.1-69.2-31.7 1.3-13.5 34.5-21.3 74.1-17.3 39.5 3.9 70.5 18.1 69.2 31.6z"/>
						<path id="&lt;Path&gt;" class="s31" d="m473 494.5c0 39.7-32.3 72-72 72-39.8 0-72-32.3-72-72 0-39.8 32.2-72 72-72 39.7 0 72 32.2 72 72z"/>
						<path id="&lt;Path&gt;" class="s32" d="m414.2 160.3c0 7.3-5.9 13.2-13.2 13.2-7.3 0-13.2-5.9-13.2-13.2 0-7.3 5.9-13.2 13.2-13.2 7.3 0 13.2 5.9 13.2 13.2z"/>
						<path id="&lt;Path&gt;" class="s33" d="m773 421.5c0 4-3.3 7.3-7.4 7.3-4.1 0-7.3-3.3-7.3-7.3 0-4.1 3.2-7.4 7.3-7.4 4.1 0 7.4 3.3 7.4 7.4z"/>
						<path id="&lt;Path&gt;" class="s34" d="m671.8 459.8c0 2.4-2 4.5-4.5 4.5-2.5 0-4.5-2.1-4.5-4.5 0-2.5 2-4.6 4.5-4.6 2.5 0 4.5 2.1 4.5 4.6z"/>
						<path id="&lt;Path&gt;" class="s35" d="m722.7 163.1c0 3.3-2.7 6-6 6-3.3 0-6-2.7-6-6 0-3.3 2.7-5.9 6-5.9 3.3 0 6 2.6 6 5.9z"/>
						<path id="&lt;Path&gt;" class="s36" d="m833.6 64.6c0 5.7-4.6 10.3-10.3 10.3-5.8 0-10.4-4.6-10.4-10.3 0-5.7 4.6-10.3 10.4-10.3 5.7 0 10.3 4.6 10.3 10.3z"/>
						<path id="&lt;Path&gt;" class="s37" d="m690.6 23.9c0 2-1.6 3.6-3.6 3.6-2 0-3.6-1.6-3.6-3.6 0-2 1.6-3.6 3.6-3.6 2 0 3.6 1.6 3.6 3.6z"/>
						<path id="&lt;Path&gt;" class="s38" d="m765.6 282.1c0 4.1-3.3 7.5-7.5 7.5-4.1 0-7.5-3.4-7.5-7.5 0-4.2 3.4-7.5 7.5-7.5 4.2 0 7.5 3.3 7.5 7.5z"/>
						<path id="&lt;Path&gt;" class="s39" d="m864.6 308.2c0 5.4-4.4 9.8-9.8 9.8-5.4 0-9.7-4.4-9.7-9.8 0-5.4 4.3-9.7 9.7-9.7 5.4 0 9.8 4.3 9.8 9.7z"/>
						<path id="&lt;Path&gt;" class="s40" d="m858.9 147.7c0 3.9-3.1 6.9-6.9 6.9-3.8 0-6.9-3-6.9-6.9 0-3.8 3.1-6.8 6.9-6.8 3.8 0 6.9 3 6.9 6.8z"/>
						<path id="&lt;Path&gt;" class="s41" d="m949.3 172.9c0 5.4-4.4 9.7-9.7 9.7-5.4 0-9.8-4.3-9.8-9.7 0-5.4 4.4-9.8 9.8-9.8 5.3 0 9.7 4.4 9.7 9.8z"/>
						<path id="&lt;Compound Path&gt;" fill-rule="evenodd" class="s42" d="m718.2 330.1c0 65.3-53.1 118.5-118.5 118.5-65.3 0-118.5-53.2-118.5-118.5 0-65.3 53.2-118.5 118.5-118.5 65.4 0 118.5 53.2 118.5 118.5zm-3 0c0-63.7-51.8-115.5-115.5-115.5-63.7 0-115.5 51.8-115.5 115.5 0 63.7 51.8 115.5 115.5 115.5 63.7 0 115.5-51.8 115.5-115.5z"/>
					</g>
				</g>
			</g>
			<g id="&lt;Group&gt;">
				<g id="&lt;Group&gt;">
					<g id="&lt;Clip Group&gt;" clip-path="url(#cp3)">
					</g>
				</g>
			</g>
		</g>
	</g>
</svg>